# File created by Blade
# Date/Time:  Wed Jan 21 19:14:05 2015
#---------------------------------------------------------
:version 1.10
:name HOM
:units
  mass 1.0
  length 1.000000
  angle deg
:documentation
     Acclaim Skeleton File
:root
   axis xyz
   order TX TY TZ RX RY RZ
   position 0.000000 0.000000 0.000000
   orientation 0 0 0
:bonedata
   begin
      id 1
      name RightUpLeg_dum
      direction -1.000000 0.000000 0.000000
      length 3.693983
      axis 0.0 0.0 0.0 xyz
   end
   begin
      id 2
      name LeftUpLeg_dum
      direction 1.000000 0.000000 0.000000
      length 3.693983
      axis 0.0 0.0 0.0 xyz
   end
   begin
      id 3
      name Spine_dum
      direction 0.000000 1.000000 0.000000
      length 2.392956
      axis 0.0 0.0 0.0 xyz
   end
   begin
      id 4
      name RightUpLeg
      direction 0.000000 -1.000000 0.000000
      length 15.795667
      axis 0.0 0.0 0.0 xyz
      dof rx ry rz
   end
   begin
      id 5
      name RightLeg
      direction 0.000000 -1.000000 0.000000
      length 14.766989
      axis 0.0 0.0 0.0 xyz
      dof rx ry rz
   end
   begin
      id 6
      name RightFoot
      direction 0.000000 -0.258819 0.965926
      length 4.962790
      axis 15.0 0.0 0.0 xyz
      dof rx ry rz
   end
   begin
      id 7
      name RightToeBase
      direction 0.000000 0.000000 1.000000
      length 2.952750
      axis 0.0 0.0 0.0 xyz
      dof rx ry rz
   end
   begin
      id 8
      name LeftUpLeg
      direction 0.000000 -1.000000 0.000000
      length 15.795667
      axis 0.0 0.0 0.0 xyz
      dof rx ry rz
   end
   begin
      id 9
      name LeftLeg
      direction 0.000000 -1.000000 0.000000
      length 14.766989
      axis 0.0 0.0 0.0 xyz
      dof rx ry rz
   end
   begin
      id 10
      name LeftFoot
      direction 0.000000 -0.258819 0.965926
      length 4.962790
      axis 15.0 0.0 0.0 xyz
      dof rx ry rz
   end
   begin
      id 11
      name LeftToeBase
      direction 0.000000 0.000000 1.000000
      length 2.952750
      axis 0.0 0.0 0.0 xyz
      dof rx ry rz
   end
   begin
      id 12
      name Spine
      direction 0.000000 1.000000 0.000000
      length 0.000000
      axis 0.0 0.0 0.0 xyz
      dof rx ry rz
   end
   begin
      id 13
      name Spine_dum1
      direction 0.000000 1.000000 0.000000
      length 13.207411
      axis 0.0 0.0 0.0 xyz
   end
   begin
      id 14
      name Spine_dum2
      direction 0.000000 1.000000 0.000000
      length 13.207411
      axis 0.0 0.0 0.0 xyz
   end
   begin
      id 15
      name Spine_dum3
      direction 0.000000 1.000000 0.000000
      length 19.250100
      axis 0.0 0.0 0.0 xyz
   end
   begin
      id 16
      name RightShoulder
      direction -1.000000 0.000000 0.000000
      length 8.140465
      axis 0.0 0.0 90.0 xyz
      dof rx ry rz
   end
   begin
      id 17
      name RightArm
      direction -1.000000 0.000000 0.000000
      length 10.649840
      axis 0.0 0.0 90.0 xyz
      dof rx ry rz
   end
   begin
      id 18
      name RightForeArm
      direction -1.000000 0.000000 0.000000
      length 8.304624
      axis 0.0 0.0 90.0 xyz
      dof ry rz rx
   end
   begin
      id 19
      name RightHand
      direction -1.000000 0.000000 0.000000
      length 0.000000
      axis 0.0 0.0 90.0 xyz
      dof rx ry rz
   end
   begin
      id 20
      name RightHand_dum1
      direction -1.000000 0.000000 0.000000
      length 3.937000
      axis 0.0 0.0 90.0 xyz
   end
   begin
      id 21
      name RightHand_dum2
      direction 0.000000 0.000000 0.000000
      length 0.000000
      axis 0.0 0.0 90.0 xyz
   end
   begin
      id 22
      name RightHandThumb1
      direction 0.000000 0.000000 1.000000
      length 3.937000
      axis 0.0 0.0 90.0 xyz
      dof rx rz ry
   end
   begin
      id 23
      name LeftShoulder
      direction 1.000000 0.000000 0.000000
      length 8.140465
      axis 0.0 0.0 -90.0 xyz
      dof rx ry rz
   end
   begin
      id 24
      name LeftArm
      direction 1.000000 0.000000 0.000000
      length 10.649840
      axis 0.0 0.0 -90.0 xyz
      dof rx ry rz
   end
   begin
      id 25
      name LeftForeArm
      direction 1.000000 0.000000 0.000000
      length 8.304624
      axis 0.0 0.0 -90.0 xyz
      dof ry rz rx
   end
   begin
      id 26
      name LeftHand
      direction 1.000000 0.000000 0.000000
      length 0.000000
      axis 0.0 0.0 -90.0 xyz
      dof rx ry rz
   end
   begin
      id 27
      name LeftHand_dum1
      direction 1.000000 0.000000 0.000000
      length 3.937000
      axis 0.0 0.0 -90.0 xyz
   end
   begin
      id 28
      name LeftHand_dum2
      direction 0.000000 0.000000 0.000000
      length 0.000000
      axis 0.0 0.0 -90.0 xyz
   end
   begin
      id 29
      name LeftHandThumb1
      direction 0.000000 0.000000 1.000000
      length 3.937000
      axis 0.0 0.0 -90.0 xyz
      dof rx rz ry
   end
   begin
      id 30
      name Head
      direction 0.000000 1.000000 0.000000
      length 4.527550
      axis 0.0 0.0 0.0 xyz
      dof rx ry rz
   end
:hierarchy
   begin
      root RightUpLeg_dum LeftUpLeg_dum Spine_dum
      RightUpLeg_dum RightUpLeg
      LeftUpLeg_dum LeftUpLeg
      Spine_dum Spine
      RightUpLeg RightLeg
      RightLeg RightFoot
      RightFoot RightToeBase
      LeftUpLeg LeftLeg
      LeftLeg LeftFoot
      LeftFoot LeftToeBase
      Spine Spine_dum1 Spine_dum2 Spine_dum3
      Spine_dum1 RightShoulder
      Spine_dum2 LeftShoulder
      Spine_dum3 Head
      RightShoulder RightArm
      RightArm RightForeArm
      RightForeArm RightHand
      RightHand RightHand_dum1 RightHand_dum2
      RightHand_dum2 RightHandThumb1
      LeftShoulder LeftArm
      LeftArm LeftForeArm
      LeftForeArm LeftHand
      LeftHand LeftHand_dum1 LeftHand_dum2
      LeftHand_dum2 LeftHandThumb1
   end

# File created by Blade
# Date/Time:  Wed Jan 21 19:13:57 2015
# Frame Rate: 120.000 fps
#------------------------------------------------------
:FULLY-SPECIFIED
:DEGREES
181
root -2.440366 33.387521 -4.139719 40.468492 69.507206 -24.356133
RightUpLeg -35.167922 -6.627615 -5.073438
RightLeg 50.647007 -0.000000 -0.000000
RightFoot 19.212779 -5.394559 19.621134
RightToeBase 30.319928 -0.000000 -0.000000
LeftUpLeg -60.752874 6.215631 -3.262120
LeftLeg 3.939309 -0.000000 -0.000000
LeftFoot -8.047148 -5.945309 1.256495
LeftToeBase 8.212026 -0.000000 -0.000000
Spine -51.167562 -1.886563 3.727507
RightShoulder -19.836112 1.097230 -28.163206
RightArm -13.939732 -18.730792 81.764503
RightForeArm 11.345603 -0.000000 -2.051153
RightHand 9.386381 0.000000 7.443315
RightHandThumb1 -24.326973 -0.000000 -32.862282
LeftShoulder -7.845404 0.271905 39.954152
LeftArm 33.122463 -6.477962 -41.277254
LeftForeArm 8.764696 0.000000 5.085749
LeftHand -13.543673 -0.000000 -4.193470
LeftHandThumb1 -26.253704 0.000000 33.147579
Head -3.443232 1.569894 19.865403
182
root -2.435191 33.410059 -4.141544 39.655132 69.720070 -25.554899
RightUpLeg -34.978833 -6.716671 -5.455032
RightLeg 53.158056 -0.000000 -0.000000
RightFoot 19.912123 -5.407123 19.090553
RightToeBase 31.314156 -0.000000 -0.000000
LeftUpLeg -61.067114 6.457884 -3.133931
LeftLeg 3.784954 -0.000000 -0.000000
LeftFoot -7.918266 -6.177924 1.325776
LeftToeBase 8.165937 -0.000000 -0.000000
Spine -51.343721 -1.788528 4.092277
RightShoulder -20.068930 0.785815 -28.008829
RightArm -13.934350 -19.235465 81.481351
RightForeArm 11.092192 0.000000 -2.033325
RightHand 9.531867 -0.000000 7.544468
RightHandThumb1 -24.326973 -0.000000 -32.862282
LeftShoulder -7.894553 0.229509 40.097418
LeftArm 33.073399 -6.711241 -40.840666
LeftForeArm 8.689801 0.000000 5.226707
LeftHand -13.571786 -0.000000 -3.915489
LeftHandThumb1 -26.253704 0.000000 33.147579
Head -3.738278 1.756448 20.089405
183
root -2.437833 33.434944 -4.143552 38.767571 69.897419 -26.835931
RightUpLeg -34.783394 -6.738621 -5.866133
RightLeg 55.679147 -0.000000 -0.000000
RightFoot 20.247648 -5.579674 19.222337
RightToeBase 32.962883 -0.000000 -0.000000
LeftUpLeg -61.417576 6.718605 -2.973651
LeftLeg 3.676513 -0.000000 -0.000000
LeftFoot -7.816229 -6.383114 1.325807
LeftToeBase 8.195706 -0.000000 -0.000000
Spine -51.498244 -1.696788 4.471688
RightShoulder -20.290958 0.556765 -27.844347
RightArm -13.959357 -19.618527 81.160509
RightForeArm 10.947587 -0.000000 -2.004747
RightHand 9.434521 -0.000000 7.614809
RightHandThumb1 -24.326973 -0.000000 -32.862282
LeftShoulder -7.984896 0.299763 40.254591
LeftArm 33.094286 -7.149038 -40.518826
LeftForeArm 8.717717 -0.000000 5.394490
LeftHand -13.668533 0.000000 -3.479742
LeftHandThumb1 -26.253704 0.000000 33.147579
Head -4.039792 1.979292 20.370033
184
root -2.439756 33.457615 -4.141081 37.874470 70.105627 -28.133536
RightUpLeg -34.542930 -6.814329 -6.242266
RightLeg 58.129012 -0.000000 -0.000000
RightFoot 20.982834 -5.471338 18.539888
RightToeBase 33.124300 -0.000000 -0.000000
LeftUpLeg -61.786593 6.986158 -2.841178
LeftLeg 3.571106 -0.000000 -0.000000
LeftFoot -7.728395 -6.646783 1.381413
LeftToeBase 8.198346 -0.000000 -0.000000
Spine -51.677743 -1.643610 4.867714
RightShoulder -20.467276 0.324843 -27.671466
RightArm -14.058081 -19.960187 80.869353
RightForeArm 10.838239 -0.000000 -1.890504
RightHand 9.444268 -0.000000 7.578192
RightHandThumb1 -24.326973 -0.000000 -32.862282
LeftShoulder -8.081881 0.318010 40.412747
LeftArm 33.112323 -7.623741 -40.219245
LeftForeArm 8.828264 -0.000000 5.561204
LeftHand -13.782442 0.000000 -3.153342
LeftHandThumb1 -26.253704 0.000000 33.147579
Head -4.333499 2.172605 20.684550
185
root -2.444934 33.481750 -4.137049 36.855416 70.325039 -29.570364
RightUpLeg -34.255778 -6.818408 -6.601255
RightLeg 60.507076 -0.000000 -0.000000
RightFoot 21.464925 -5.492953 18.468101
RightToeBase 34.238459 -0.000000 -0.000000
LeftUpLeg -62.178967 7.273914 -2.691393
LeftLeg 3.464601 -0.000000 -0.000000
LeftFoot -7.625808 -6.926503 1.377483
LeftToeBase 8.183086 -0.000000 -0.000000
Spine -51.847518 -1.590647 5.341247
RightShoulder -20.638760 0.155329 -27.526618
RightArm -14.156793 -20.025148 80.513645
RightForeArm 10.499714 0.000000 -1.800717
RightHand 9.445053 -0.000000 7.625087
RightHandThumb1 -24.326973 -0.000000 -32.862282
LeftShoulder -8.148312 0.325985 40.560631
LeftArm 32.981980 -8.096223 -39.897571
LeftForeArm 8.846847 -0.000000 5.830251
LeftHand -13.826862 -0.000000 -2.811183
LeftHandThumb1 -26.253704 0.000000 33.147579
Head -4.631490 2.426633 20.928150
186
root -2.454425 33.504576 -4.134977 35.932794 70.514640 -30.897132
RightUpLeg -33.957375 -6.861069 -6.990060
RightLeg 62.903489 -0.000000 -0.000000
RightFoot 21.939903 -5.558063 18.247786
RightToeBase 35.219279 -0.000000 -0.000000
LeftUpLeg -62.571568 7.551978 -2.590596
LeftLeg 3.364550 -0.000000 -0.000000
LeftFoot -7.503620 -7.186738 1.462840
LeftToeBase 8.082791 -0.000000 -0.000000
Spine -51.996309 -1.540180 5.727216
RightShoulder -20.866957 -0.108427 -27.345022
RightArm -14.164464 -20.216915 80.168711
RightForeArm 10.159300 -0.000000 -1.642164
RightHand 9.269012 0.000000 7.645309
RightHandThumb1 -24.326973 -0.000000 -32.862282
LeftShoulder -8.192699 0.336038 40.762569
LeftArm 32.885092 -8.637896 -39.689378
LeftForeArm 8.948067 0.000000 6.109072
LeftHand -14.018704 -0.000000 -2.369676
LeftHandThumb1 -26.253704 0.000000 33.147579
Head -4.971143 2.623414 21.222983
187
root -2.463685 33.525605 -4.131181 35.041991 70.700111 -32.187530
RightUpLeg -33.631880 -6.884226 -7.424054
RightLeg 65.282843 -0.000000 -0.000000
RightFoot 22.391040 -5.768542 18.319916
RightToeBase 36.285608 -0.000000 -0.000000
LeftUpLeg -62.969665 7.851896 -2.572056
LeftLeg 3.249036 -0.000000 -0.000000
LeftFoot -7.420442 -7.599140 1.356493
LeftToeBase 8.313570 -0.000000 -0.000000
Spine -52.149322 -1.525947 6.126140
RightShoulder -21.048864 -0.242775 -27.187710
RightArm -14.325465 -20.346015 79.822392
RightForeArm 9.658503 -0.000000 -1.414198
RightHand 9.158803 -0.000000 7.690317
RightHandThumb1 -24.326973 -0.000000 -32.862282
LeftShoulder -8.262210 0.369668 40.939687
LeftArm 32.789738 -9.089373 -39.394619
LeftForeArm 8.973060 -0.000000 6.359080
LeftHand -14.133844 -0.000000 -1.847207
LeftHandThumb1 -26.253704 0.000000 33.147579
Head -5.287584 2.853690 21.493781
188
root -2.479301 33.545721 -4.127937 34.107190 70.909125 -33.538342
RightUpLeg -33.286068 -6.940930 -7.826372
RightLeg 67.603101 -0.000000 -0.000000
RightFoot 22.980464 -5.906078 18.004848
RightToeBase 37.066641 -0.000000 -0.000000
LeftUpLeg -63.425519 8.134055 -2.528607
LeftLeg 3.192722 -0.000000 -0.000000
LeftFoot -7.335251 -7.994007 1.299032
LeftToeBase 8.400463 -0.000000 -0.000000
Spine -52.305005 -1.536583 6.575607
RightShoulder -21.233887 -0.396254 -27.072165
RightArm -14.382240 -20.611819 79.542390
RightForeArm 9.133192 -0.000000 -1.293019
RightHand 9.082519 -0.000000 7.995749
RightHandThumb1 -24.326973 -0.000000 -32.862282
LeftShoulder -8.331238 0.402379 41.099065
LeftArm 32.687980 -9.605495 -39.125673
LeftForeArm 9.104137 -0.000000 6.606535
LeftHand -14.289460 0.000000 -1.364722
LeftHandThumb1 -26.253704 0.000000 33.147579
Head -5.593703 3.117548 21.736368
189
root -2.498621 33.564298 -4.126565 33.097029 71.111824 -34.926610
RightUpLeg -32.876260 -6.972582 -8.243151
RightLeg 69.913833 -0.000000 -0.000000
RightFoot 23.496277 -6.198856 17.773009
RightToeBase 37.802821 -0.000000 -0.000000
LeftUpLeg -63.854623 8.416279 -2.477424
LeftLeg 3.136809 -0.000000 -0.000000
LeftFoot -7.285356 -8.395977 1.171402
LeftToeBase 8.595889 -0.000000 -0.000000
Spine -52.406109 -1.518008 6.987441
RightShoulder -21.483170 -0.520524 -26.975532
RightArm -14.478666 -21.046561 79.313355
RightForeArm 8.689308 -0.000000 -1.200240
RightHand 8.979277 -0.000000 8.347299
RightHandThumb1 -24.326973 -0.000000 -32.862282
LeftShoulder -8.358043 0.417103 41.270288
LeftArm 32.569296 -10.198162 -38.924301
LeftForeArm 9.234630 0.000000 6.931060
LeftHand -14.499274 -0.000000 -0.997768
LeftHandThumb1 -26.253704 0.000000 33.147579
Head -5.931189 3.340280 21.985350
